<svg width="48" height="30" viewBox="0 0 48 30" fill="none" xmlns="http://www.w3.org/2000/svg">
<path d="M47.3523 1.47785C47.25 1.06025 47.0117 0.688497 46.6751 0.420996C46.3385 0.153495 45.9225 0.00540761 45.4926 0L39.249 0C38.2217 0 36.9768 0.943228 36.3773 1.97047L24.5392 22.7597V1.92846C24.5338 1.47152 24.3679 1.03104 24.0705 0.684078C23.7731 0.337119 23.3632 0.105784 22.9124 0.0305499L22.5649 0H8.78309C8.58343 0.0139025 8.39648 0.103024 8.25996 0.249379C8.12344 0.395734 8.04752 0.588426 8.04752 0.788569C8.04752 0.988712 8.12344 1.1814 8.25996 1.32776C8.39648 1.47411 8.58343 1.56324 8.78309 1.57714H17.1843C17.2925 1.56961 17.401 1.58441 17.5033 1.62063C17.6055 1.65685 17.6991 1.7137 17.7784 1.78767C17.8577 1.86163 17.9209 1.95112 17.9642 2.05056C18.0074 2.15 18.0297 2.25727 18.0297 2.36571C18.0297 2.47414 18.0074 2.58141 17.9642 2.68086C17.9209 2.7803 17.8577 2.86979 17.7784 2.94375C17.6991 3.01771 17.6055 3.07457 17.5033 3.11079C17.401 3.14701 17.2925 3.16181 17.1843 3.15428H13.1479C12.9482 3.16818 12.7613 3.2573 12.6248 3.40366C12.4883 3.55001 12.4123 3.7427 12.4123 3.94285C12.4123 4.14299 12.4883 4.33568 12.6248 4.48204C12.7613 4.62839 12.9482 4.71751 13.1479 4.73142H21.0451C21.2447 4.74532 21.4317 4.83444 21.5682 4.98079C21.7047 5.12715 21.7806 5.31984 21.7806 5.51999C21.7806 5.72013 21.7047 5.91282 21.5682 6.05918C21.4317 6.20553 21.2447 6.29465 21.0451 6.30855H7.99643C7.79677 6.32246 7.60982 6.41158 7.4733 6.55793C7.33678 6.70429 7.26086 6.89698 7.26086 7.09712C7.26086 7.29727 7.33678 7.48996 7.4733 7.63631C7.60982 7.78267 7.79677 7.87179 7.99643 7.88569H16.2144C16.3225 7.87816 16.4311 7.89296 16.5333 7.92918C16.6355 7.9654 16.7292 8.02226 16.8084 8.09622C16.8877 8.17018 16.951 8.25967 16.9942 8.35911C17.0374 8.45856 17.0597 8.56583 17.0597 8.67426C17.0597 8.7827 17.0374 8.88997 16.9942 8.98941C16.951 9.08885 16.8877 9.17834 16.8084 9.2523C16.7292 9.32627 16.6355 9.38312 16.5333 9.41934C16.4311 9.45556 16.3225 9.47036 16.2144 9.46283H6.34292C6.23474 9.4553 6.12618 9.4701 6.02397 9.50632C5.92177 9.54254 5.82811 9.5994 5.74882 9.67336C5.66952 9.74732 5.6063 9.83681 5.56307 9.93625C5.51984 10.0357 5.49753 10.143 5.49753 10.2514C5.49753 10.3598 5.51984 10.4671 5.56307 10.5666C5.6063 10.666 5.66952 10.7555 5.74882 10.8294C5.82811 10.9034 5.92177 10.9603 6.02397 10.9965C6.12618 11.0327 6.23474 11.0475 6.34292 11.04H19.1548C19.3544 11.0539 19.5414 11.143 19.6779 11.2893C19.8144 11.4357 19.8903 11.6284 19.8903 11.8285C19.8903 12.0287 19.8144 12.2214 19.6779 12.3677C19.5414 12.5141 19.3544 12.6032 19.1548 12.6171H2.02774C1.82808 12.631 1.64113 12.7201 1.50461 12.8665C1.36809 13.0128 1.29217 13.2055 1.29217 13.4057C1.29217 13.6058 1.36809 13.7985 1.50461 13.9449C1.64113 14.0912 1.82808 14.1803 2.02774 14.1942H16.9781C17.1877 14.1942 17.3888 14.2775 17.5371 14.4258C17.6853 14.574 17.7686 14.7751 17.7686 14.9847C17.7686 15.1944 17.6853 15.3954 17.5371 15.5437C17.3888 15.6919 17.1877 15.7752 16.9781 15.7752H3.9562C3.84803 15.7677 3.73947 15.7825 3.63726 15.8187C3.53506 15.8549 3.4414 15.9118 3.3621 15.9857C3.28281 16.0597 3.21959 16.1492 3.17636 16.2486C3.13313 16.3481 3.11082 16.4553 3.11082 16.5638C3.11082 16.6722 3.13313 16.7795 3.17636 16.8789C3.21959 16.9784 3.28281 17.0679 3.3621 17.1418C3.4414 17.2158 3.53506 17.2726 3.63726 17.3089C3.73947 17.3451 3.84803 17.3599 3.9562 17.3523H14.7709C14.879 17.3448 14.9876 17.3596 15.0898 17.3958C15.192 17.4321 15.2857 17.4889 15.365 17.5629C15.4443 17.6368 15.5075 17.7263 15.5507 17.8258C15.5939 17.9252 15.6163 18.0325 15.6163 18.1409C15.6163 18.2493 15.5939 18.3566 15.5507 18.4561C15.5075 18.5555 15.4443 18.645 15.365 18.719C15.2857 18.7929 15.192 18.8498 15.0898 18.886C14.9876 18.9222 14.879 18.937 14.7709 18.9295H0.790471C0.590811 18.9434 0.403858 19.0325 0.26734 19.1789C0.130821 19.3252 0.0549011 19.5179 0.0549011 19.7181C0.0549011 19.9182 0.130821 20.1109 0.26734 20.2572C0.403858 20.4036 0.590811 20.4927 0.790471 20.5066H19.8574C19.9656 20.4991 20.0742 20.5139 20.1764 20.5501C20.2786 20.5863 20.3722 20.6432 20.4515 20.7171C20.5308 20.7911 20.594 20.8806 20.6373 20.98C20.6805 21.0795 20.7028 21.1868 20.7028 21.2952C20.7028 21.4036 20.6805 21.5109 20.6373 21.6103C20.594 21.7098 20.5308 21.7993 20.4515 21.8732C20.3722 21.9472 20.2786 22.0041 20.1764 22.0403C20.0742 22.0765 19.9656 22.0913 19.8574 22.0838H7.59928C7.39962 22.0977 7.21267 22.1868 7.07615 22.3331C6.93963 22.4795 6.86371 22.6722 6.86371 22.8723C6.86371 23.0725 6.93963 23.2652 7.07615 23.4115C7.21267 23.5579 7.39962 23.647 7.59928 23.6609H17.9481C18.0562 23.6534 18.1648 23.6682 18.267 23.7044C18.3692 23.7406 18.4629 23.7975 18.5422 23.8714C18.6214 23.9454 18.6847 24.0349 18.7279 24.1343C18.7711 24.2338 18.7934 24.341 18.7934 24.4495C18.7934 24.5579 18.7711 24.6652 18.7279 24.7646C18.6847 24.8641 18.6214 24.9535 18.5422 25.0275C18.4629 25.1015 18.3692 25.1583 18.267 25.1945C18.1648 25.2308 18.0562 25.2456 17.9481 25.238H5.09037C4.89071 25.2519 4.70376 25.3411 4.56724 25.4874C4.43072 25.6338 4.3548 25.8265 4.3548 26.0266C4.3548 26.2267 4.43072 26.4194 4.56724 26.5658C4.70376 26.7122 4.89071 26.8013 5.09037 26.8152H14.874C14.9821 26.8076 15.0907 26.8224 15.1929 26.8587C15.2951 26.8949 15.3888 26.9517 15.4681 27.0257C15.5474 27.0997 15.6106 27.1892 15.6538 27.2886C15.6971 27.388 15.7194 27.4953 15.7194 27.6037C15.7194 27.7122 15.6971 27.8194 15.6538 27.9189C15.6106 28.0183 15.5474 28.1078 15.4681 28.1818C15.3888 28.2557 15.2951 28.3126 15.1929 28.3488C15.0907 28.385 14.9821 28.3998 14.874 28.3923H4.41063C4.30246 28.3848 4.1939 28.3996 4.09169 28.4358C3.98949 28.472 3.89583 28.5289 3.81653 28.6028C3.73724 28.6768 3.67402 28.7663 3.63079 28.8657C3.58756 28.9652 3.56525 29.0725 3.56525 29.1809C3.56525 29.2893 3.58756 29.3966 3.63079 29.496C3.67402 29.5955 3.73724 29.685 3.81653 29.7589C3.89583 29.8329 3.98949 29.8897 4.09169 29.926C4.1939 29.9622 4.30246 29.977 4.41063 29.9695H25.8223C26.9374 29.9695 28.2663 29.0682 28.8773 27.999L39.8065 8.58452V11.5822C40.5531 10.7477 41.4805 10.0946 42.5178 9.67286C44.0608 9.0787 45.6989 8.76946 47.3523 8.76018V1.97047C47.3516 1.82125 47.3337 1.67261 47.2989 1.5275L47.3523 1.47785ZM18.918 9.46665C18.7617 9.46665 18.6088 9.42029 18.4789 9.33343C18.3489 9.24657 18.2475 9.12312 18.1877 8.97868C18.1279 8.83423 18.1122 8.67529 18.1427 8.52196C18.1732 8.36862 18.2485 8.22777 18.3591 8.11722C18.4696 8.00667 18.6105 7.93138 18.7638 7.90088C18.9171 7.87038 19.0761 7.88604 19.2205 7.94586C19.365 8.00569 19.4884 8.10701 19.5753 8.23701C19.6621 8.367 19.7085 8.51983 19.7085 8.67617C19.7085 8.88582 19.6252 9.08688 19.477 9.23512C19.3287 9.38337 19.1277 9.46665 18.918 9.46665ZM19.1357 18.9524C18.9793 18.9524 18.8265 18.906 18.6965 18.8192C18.5665 18.7323 18.4652 18.6089 18.4054 18.4644C18.3455 18.32 18.3299 18.161 18.3604 18.0077C18.3909 17.8544 18.4662 17.7135 18.5767 17.603C18.6873 17.4924 18.8281 17.4171 18.9815 17.3866C19.1348 17.3561 19.2937 17.3718 19.4382 17.4316C19.5826 17.4914 19.7061 17.5928 19.7929 17.7227C19.8798 17.8527 19.9262 18.0056 19.9262 18.1619C19.9262 18.3716 19.8429 18.5726 19.6946 18.7209C19.5464 18.8691 19.3453 18.9524 19.1357 18.9524ZM17.5662 28.419C17.4088 28.4244 17.2534 28.3826 17.12 28.299C16.9865 28.2155 16.881 28.0939 16.8171 27.9501C16.7532 27.8062 16.7336 27.6465 16.761 27.4914C16.7885 27.3363 16.8616 27.193 16.971 27.0798C17.0804 26.9665 17.2211 26.8885 17.3751 26.8558C17.5292 26.8231 17.6895 26.8371 17.8355 26.8961C17.9815 26.955 18.1065 27.0562 18.1946 27.1868C18.2827 27.3173 18.3298 27.4711 18.3299 27.6286C18.33 27.8337 18.2504 28.0308 18.1079 28.1783C17.9654 28.3258 17.7712 28.4121 17.5662 28.419V28.419Z" fill="white"/>
</svg>
